<svg width="29" height="9" viewBox="0 0 29 9" fill="none" xmlns="http://www.w3.org/2000/svg">
<path d="M4.63477 4.37891L4.69336 4.4082C5.11914 3.32617 5.65625 2.78516 6.30469 2.78516C6.57031 2.78516 6.7832 2.86914 6.94336 3.03711C7.09961 3.19727 7.17773 3.43359 7.17773 3.74609C7.17773 4.06641 7.16406 4.30273 7.13672 4.45508L6.88477 6.51758C6.86914 6.61914 6.85742 6.76367 6.84961 6.95117C6.84961 7.19336 6.91797 7.31055 7.05469 7.30273C7.19141 7.29492 7.35156 7.22656 7.53516 7.09766C7.72266 6.96094 7.875 6.78906 7.99219 6.58203L8.23828 6.74609C7.88672 7.68359 7.29297 8.15234 6.45703 8.15234C6.07422 8.15234 5.88281 7.9082 5.88281 7.41992C5.88281 7.23633 5.92383 6.85742 6.00586 6.2832L6.14062 5.20508C6.19141 4.82227 6.2207 4.52148 6.22852 4.30273C6.22852 3.97461 6.12109 3.80859 5.90625 3.80469C5.60547 3.80469 5.33984 3.97266 5.10938 4.30859C4.88281 4.64062 4.68164 5.20117 4.50586 5.99023C4.48242 6.80273 4.40039 7.36914 4.25977 7.68945C4.11133 8.02539 3.87109 8.19336 3.53906 8.19336C3.52734 8.19336 3.44531 8.1875 3.29297 8.17578L3.19922 8.01172L3.66211 5.78516C3.75586 5.15234 3.80273 4.70117 3.80273 4.43164C3.80273 4.16211 3.77539 3.99414 3.7207 3.92773C3.66602 3.86133 3.57812 3.82812 3.45703 3.82812C3.17578 3.82812 2.91992 3.99219 2.68945 4.32031C2.45898 4.64844 2.25391 5.20312 2.07422 5.98438C2.05078 6.80078 1.9668 7.35938 1.82227 7.66016C1.66992 7.97656 1.42578 8.13477 1.08984 8.13477C1.0625 8.13477 0.976562 8.12695 0.832031 8.11133L0.75 7.95312L1.23047 5.78516L1.35938 4.41992C1.37109 4.25586 1.37695 4.10938 1.37695 3.98047C1.37695 3.83203 1.35938 3.72266 1.32422 3.65234C1.28906 3.57812 1.23438 3.54297 1.16016 3.54688C1.08984 3.54688 0.96875 3.64453 0.796875 3.83984C0.625 4.03516 0.478516 4.24023 0.357422 4.45508L0.0761719 4.24414C0.232422 3.82227 0.478516 3.44922 0.814453 3.125C1.14258 2.80859 1.48242 2.65039 1.83398 2.65039C2.14258 2.65039 2.29297 2.84961 2.28516 3.24805C2.28516 3.43555 2.25977 3.64453 2.20898 3.875C2.16602 4.04297 2.13086 4.21484 2.10352 4.39062C2.0957 4.44141 2.08594 4.49414 2.07422 4.54883C2.06641 4.59961 2.05859 4.63672 2.05078 4.66016C2.04688 4.68359 2.04492 4.69922 2.04492 4.70703L2.10938 4.71875C2.28516 4.1875 2.54688 3.73242 2.89453 3.35352C3.23828 2.98242 3.56641 2.79688 3.87891 2.79688C4.1875 2.79688 4.40625 2.85547 4.53516 2.97266C4.66406 3.08984 4.72852 3.30859 4.72852 3.62891C4.72852 3.95312 4.69727 4.20312 4.63477 4.37891ZM9.06445 2.81445L9.22852 1.30859L8.43164 1.14453L8.49609 0.716797L10.1309 0.582031L10.2188 0.705078L9.79102 4.34961L9.55664 6.51758C9.54492 6.6543 9.53906 6.78125 9.53906 6.89844C9.53906 7.16016 9.60547 7.29102 9.73828 7.29102C9.86719 7.29102 10.0273 7.22266 10.2188 7.08594C10.4023 6.95312 10.5566 6.77734 10.6816 6.55859L10.9277 6.73438C10.5762 7.67188 9.98047 8.14062 9.14062 8.14062C8.73828 8.14062 8.53711 7.85938 8.53711 7.29688C8.53711 7.0625 8.56836 6.7207 8.63086 6.27148L9.06445 2.81445Z" fill="#0284C7"/>
<path d="M13.6523 3.91016C13.6523 3.73047 13.6133 3.5957 13.5352 3.50586C13.457 3.41211 13.3398 3.36719 13.1836 3.37109C12.5273 3.37109 12.1523 4.10547 12.0586 5.57422C13.1211 5.17969 13.6523 4.625 13.6523 3.91016ZM14.2852 3.02539C14.457 3.20898 14.543 3.44922 14.543 3.74609C14.543 4.30859 14.2539 4.79492 13.6758 5.20508C13.207 5.54102 12.668 5.80664 12.0586 6.00195C12.082 6.93164 12.3984 7.39648 13.0078 7.39648C13.4609 7.39648 13.8633 7.11719 14.2148 6.55859L14.4316 6.74609C14.2988 7.13281 14.0586 7.4707 13.7109 7.75977C13.3711 8.04102 12.9785 8.18164 12.5332 8.18164C12.0918 8.18164 11.7461 8.01172 11.4961 7.67188C11.2461 7.33594 11.1211 6.87305 11.1211 6.2832C11.1211 5.69727 11.2344 5.13672 11.4609 4.60156C11.6953 4.05469 12 3.60938 12.375 3.26562C12.7578 2.91797 13.1543 2.74414 13.5645 2.74414C13.8691 2.74414 14.1094 2.83789 14.2852 3.02539ZM17.3672 4.53125C17.3672 4.46484 17.3477 4.32617 17.3086 4.11523C17.2344 3.71289 17.1172 3.46484 16.957 3.37109C16.8984 3.34375 16.8359 3.33203 16.7695 3.33594C16.418 3.33594 16.1484 3.55078 15.9609 3.98047C15.7734 4.40625 15.6797 4.98047 15.6797 5.70312C15.6797 6.07812 15.709 6.38086 15.7676 6.61133C15.8262 6.83398 15.9375 7.02539 16.1016 7.18555C16.2695 7.3457 16.4902 7.42578 16.7637 7.42578H16.7754C16.9551 7.42578 17.1406 7.35742 17.332 7.2207C17.5195 7.08789 17.6758 6.9043 17.8008 6.66992L18.0117 6.85742C17.9336 7.20508 17.7188 7.51172 17.3672 7.77734C17.0078 8.04688 16.6348 8.18164 16.248 8.18164C15.7559 8.18164 15.3809 7.98828 15.123 7.60156C14.8691 7.21875 14.7422 6.70312 14.7422 6.05469C14.7422 5.62109 14.8125 5.19922 14.9531 4.78906C15.0898 4.39453 15.2734 4.04492 15.5039 3.74023C15.7266 3.45117 15.9824 3.2168 16.2715 3.03711C16.5645 2.85742 16.8633 2.76758 17.168 2.76758C17.4766 2.76758 17.7227 2.85742 17.9062 3.03711C18.0898 3.2168 18.1816 3.44141 18.1816 3.71094C18.1816 3.97656 18.1172 4.17188 17.9883 4.29688C17.8633 4.41797 17.6562 4.49609 17.3672 4.53125ZM19.6758 3.70508C19.3594 4.06445 19.2012 4.59766 19.2012 5.30469C19.2012 6.08984 19.3809 6.70312 19.7402 7.14453C19.9238 7.36719 20.1191 7.47656 20.3262 7.47266C20.5449 7.46484 20.7383 7.36914 20.9062 7.18555C21.2344 6.80664 21.3984 6.25 21.3984 5.51562C21.3984 4.73828 21.2246 4.14062 20.877 3.72266C20.7012 3.51953 20.502 3.41406 20.2793 3.40625C20.0645 3.40234 19.8633 3.50195 19.6758 3.70508ZM18.791 7.53711C18.5137 7.13086 18.375 6.62109 18.375 6.00781C18.375 5.40625 18.4785 4.85938 18.6855 4.36719C18.8926 3.87109 19.1719 3.48047 19.5234 3.19531C19.8828 2.90234 20.2754 2.75586 20.7012 2.75586C21.127 2.75586 21.4902 2.95312 21.791 3.34766C22.0879 3.73828 22.2363 4.22266 22.2363 4.80078C22.2363 5.375 22.1465 5.90625 21.9668 6.39453C21.7871 6.88281 21.5195 7.29883 21.1641 7.64258C20.8125 7.98242 20.4004 8.15234 19.9277 8.15234C19.4512 8.15234 19.0723 7.94727 18.791 7.53711ZM23.0684 2.81445L23.2324 1.30859L22.4355 1.14453L22.5 0.716797L24.1348 0.582031L24.2227 0.705078L23.7949 4.34961L23.5605 6.51758C23.5488 6.6543 23.543 6.78125 23.543 6.89844C23.543 7.16016 23.6094 7.29102 23.7422 7.29102C23.8711 7.29102 24.0312 7.22266 24.2227 7.08594C24.4062 6.95312 24.5605 6.77734 24.6855 6.55859L24.9316 6.73438C24.5801 7.67188 23.9844 8.14062 23.1445 8.14062C22.7422 8.14062 22.541 7.85938 22.541 7.29688C22.541 7.0625 22.5723 6.7207 22.6348 6.27148L23.0684 2.81445ZM27.6562 3.91016C27.6562 3.73047 27.6172 3.5957 27.5391 3.50586C27.4609 3.41211 27.3438 3.36719 27.1875 3.37109C26.5312 3.37109 26.1562 4.10547 26.0625 5.57422C27.125 5.17969 27.6562 4.625 27.6562 3.91016ZM28.2891 3.02539C28.4609 3.20898 28.5469 3.44922 28.5469 3.74609C28.5469 4.30859 28.2578 4.79492 27.6797 5.20508C27.2109 5.54102 26.6719 5.80664 26.0625 6.00195C26.0859 6.93164 26.4023 7.39648 27.0117 7.39648C27.4648 7.39648 27.8672 7.11719 28.2188 6.55859L28.4355 6.74609C28.3027 7.13281 28.0625 7.4707 27.7148 7.75977C27.375 8.04102 26.9824 8.18164 26.5371 8.18164C26.0957 8.18164 25.75 8.01172 25.5 7.67188C25.25 7.33594 25.125 6.87305 25.125 6.2832C25.125 5.69727 25.2383 5.13672 25.4648 4.60156C25.6992 4.05469 26.0039 3.60938 26.3789 3.26562C26.7617 2.91797 27.1582 2.74414 27.5684 2.74414C27.873 2.74414 28.1133 2.83789 28.2891 3.02539Z" fill="#F0F9FF"/>
</svg>
